<svg xmlns="http://www.w3.org/2000/svg" width="407.013" height="812.983" viewBox="0 0 407.013 812.983">
  <g id="svg_32" transform="translate(0.507 812.47) rotate(-90)">
    <rect id="svg_20" width="811.94" height="405.97" transform="translate(0.008 0.014)" fill="#fa0" stroke="#000" stroke-width="1.043"/>
    <g id="svg_21" transform="translate(0)">
      <path id="svg_22" d="M246.625,12.68C191.166,1.617,133.261-3.668,76.478,2.827A357.474,357.474,0,0,0,0,19.779v40.7H428.194C369.385,43.63,311.075,25.926,251.8,13.7c-1.726-.358-3.45-.664-5.179-1.016Z" transform="translate(0.007 345.602)" fill="#ffb100"/>
      <path id="svg_23" d="M811.941,0H0V365.269a358.294,358.294,0,0,1,76.478-17c56.783-6.441,114.688-1.215,170.148,9.853,1.726.358,3.45.711,5.179,1.016,59.27,12.178,117.583,29.946,176.4,46.787H811.947V0Z" transform="translate(0.007 0.013)" fill="#ffb800"/>
      <path id="svg_24" d="M242.771,294.842c1.624.411,3.247.869,4.824,1.274,99.563,26.64,197.249,67.743,301.175,89.61,88.4,18.573,177.358,14.82,263.175-5.173V0H0V291.747a313.588,313.588,0,0,1,81.756-15.684c54.446-3.347,108.9,5.173,161.014,18.772Z" transform="translate(0.011)" fill="#ffbf00"/>
      <path id="svg_25" d="M.006,0V217.9a282.981,282.981,0,0,1,86.979-14.051c52.165-.405,103.118,11.521,151.884,27.65,1.521.511,2.992,1.022,4.513,1.527,93.171,31.455,185.585,74.138,285.4,97.478,94.742,22.178,190.952,17.463,283.11-6.389V0H0Z" transform="translate(0 0.013)" fill="#ffc500"/>
      <path id="svg_26" d="M92.264,131.629C142.1,134.67,189.645,149.5,235.011,168.21c1.424.558,2.792,1.163,4.213,1.726C326,206.277,413.136,250.369,508.835,275.342c100.884,26.288,204.712,20.71,303.109-7.51V0H0V143.713A245.34,245.34,0,0,1,92.258,131.64Z" transform="translate(0 0.325)" fill="#fc0"/>
      <path id="svg_27" d="M811.941,0H0V69.17a218.429,218.429,0,0,1,97.537-9.753c47.5,6.136,91.6,24.21,133.613,45.466,1.318.664,2.589,1.315,3.908,1.985,80.382,41.15,162.236,86.733,253.883,113.267,106.82,30.956,218.614,24.867,323.05-8.42V0Z" transform="translate(0.007 0.013)" fill="#ffd624"/>
      <path id="svg_28" d="M84.645,43.792c73.982,46.029,150.565,92.869,238.1,121.142,105.86,34.2,218.869,30.845,323.711-2.7,6.5-2.079,12.889-4.269,19.333-6.547V0H0C28.417,10.81,55.163,25.677,81.043,41.619c1.215.7,2.387,1.468,3.605,2.173Z" transform="translate(146.211 0.365)" fill="#ffe038"/>
      <path id="svg_29" d="M559.224,0H0C59.931,43.54,123.567,83.474,196.286,109.709c97.328,35.125,202.983,37.914,301.941,10.71a497.159,497.159,0,0,0,61.043-21.168V0h-.05Z" transform="translate(252.723 0.013)" fill="#ffeb49"/>
      <path id="svg_30" d="M382.679,78.553a436.206,436.206,0,0,0,70.339-22.231c11.013-4.515,21.82-9.536,32.424-14.967V0H0A573.235,573.235,0,0,0,102.563,54.5c88.753,35.883,187.1,45.019,280.115,24.063Z" transform="translate(326.506 0.12)" fill="#fff558"/>
      <path id="svg_31" d="M256.881,36.746A372.03,372.03,0,0,0,366.9,0H0C80.033,36.03,170.306,51.255,256.881,36.746Z" transform="translate(410.594 0.312)" fill="#ff6"/>
    </g>
  </g>
</svg>
